#!OML:ASF F:\VICON\USERDATA\INSTALL\rory3\rory3.ASF
:FULLY-SPECIFIED
:DEGREES
436
root 0.927574 17.7755 -16.9112 3.46894 -1.80533 -0.0640202
lowerback 3.91794 -0.137289 -0.351131
upperback -0.933535 -0.127635 2.4082
thorax -3.15286 -0.0336997 2.68789
lowerneck -19.1324 -3.4586 -9.65697
upperneck 15.5455 -3.49345 7.41057
head 8.27597 -1.48157 3.64084
rclavicle -1.92821e-014 1.03368e-014
rhumerus -38.8709 -15.9842 -73.0662
rradius 40.496
rwrist 0.0358328
rhand -17.2781 18.253
rfingers 7.12502
rthumb 8.96696 -11.5365
lclavicle -1.92821e-014 1.03368e-014
lhumerus -37.817 9.12709 80.4148
lradius 38.9068
lwrist 0.166135
lhand -17.3397 23.6338
lfingers 7.12502
lthumb 8.90756 53.4258
rfemur -4.26999 3.9755 24.9326
rtibia 17.8811
rfoot -11.3542 -10.9521
rtoes 8.20602
lfemur -7.49523 -5.14046 -19.544
ltibia 20.9805
lfoot -12.6925 6.45741
ltoes -0.108166
437
root 0.929967 17.7735 -16.9122 3.4392 -1.97258 -0.233213
lowerback 3.90438 -0.107503 -0.198429
upperback -0.904665 -0.0801789 2.43026
thorax -3.11788 -0.0131839 2.62125
lowerneck -19.1069 -3.45147 -9.60415
upperneck 15.5285 -3.50146 7.41628
head 8.26565 -1.48193 3.63289
rclavicle -3.42904e-015 2.54444e-014
rhumerus -38.7896 -15.8245 -73.2113
rradius 40.5532
rwrist -0.141071
rhand -17.2967 18.0849
rfingers 7.12502
rthumb 8.94903 -11.7053
lclavicle -3.42904e-015 2.54444e-014
lhumerus -37.7453 9.19766 80.2785
lradius 38.7712
lwrist -0.268113
lhand -17.1031 23.4607
lfingers 7.12502
lthumb 9.13583 53.2428
rfemur -4.29768 4.09844 25.1069
rtibia 17.937
rfoot -11.3546 -10.9548
rtoes 7.55596
lfemur -7.44559 -5.01041 -19.3862
ltibia 21.0693
lfoot -12.823 6.53423
ltoes -0.339292
438
root 0.935554 17.7706 -16.9131 3.42202 -2.0032 -0.203248
lowerback 3.90313 -0.0974248 -0.208216
upperback -0.894168 -0.0683636 2.39965
thorax -3.10688 -0.00754981 2.59422
lowerneck -19.0798 -3.49516 -9.5272
upperneck 15.4657 -3.56545 7.32923
head 8.24265 -1.51644 3.58101
rclavicle 1.35174e-014 3.97569e-015
rhumerus -38.7545 -15.8443 -73.2511
rradius 40.5428
rwrist -0.0991241
rhand -17.3053 18.0303
rfingers 7.12502
rthumb 8.94074 -11.7602
lclavicle 1.35174e-014 3.97569e-015
lhumerus -37.6423 9.11585 80.2365
lradius 38.5994
lwrist -0.491953
lhand -17.1641 22.8896
lfingers 7.12502
lthumb 9.077 52.6742
rfemur -4.32026 3.86272 25.0599
rtibia 17.9604
rfoot -11.2097 -10.8432
rtoes 6.33657
lfemur -7.47965 -4.74568 -19.4574
ltibia 21.1984
lfoot -12.8822 6.42607
ltoes -1.43025
439
root 0.941374 17.7672 -16.9092 3.39703 -2.03165 -0.0418518
lowerback 3.9344 -0.118958 -0.390148
upperback -0.966285 -0.105779 2.3642
thorax -3.197 -0.0219188 2.66325
lowerneck -18.8016 -3.48632 -9.49724
upperneck 15.3482 -3.57275 7.27713
head 8.15408 -1.52784 3.55641
rclavicle 2.39039e-014 7.95139e-015
rhumerus -38.8376 -15.6968 -73.2787
rradius 40.5195
rwrist -0.0626075
rhand -17.3772 17.8376
rfingers 7.12502
rthumb 8.87139 -11.956
lclavicle 2.39039e-014 7.95139e-015
lhumerus -37.6691 9.07394 80.231
lradius 38.3793
lwrist -0.61529
lhand -17.4949 23.3415
lfingers 7.12502
lthumb 8.75778 53.1398
rfemur -4.29139 3.62167 24.8733
rtibia 17.947
rfoot -11.0104 -10.7476
rtoes 4.64864
lfemur -7.50663 -4.68437 -19.6622
ltibia 21.351
lfoot -13.0045 6.38921
ltoes -1.33322
